<svg xmlns="http://www.w3.org/2000/svg" xmlns:v="https://svgstorm.com"
viewBox="150 150 724 724"
width="1024"
height="1024">
<g fill="None" fill-opacity="0.0" stroke="#FBFBFB" stroke-opacity="1.00" stroke-width="0.3"><path d="
M 0.00 1024.00 
L 1024.00 1024.00
L 1024.00 0.00
L 0.00 0.00
L 0.00 1024.00
M 613.00 370.00 
C 613.67 376.92 613.66 385.15 613.00 392.00
C 613.00 400.35 614.75 412.09 624.67 408.67 C 634.59 405.25 633.65 399.75 640.75 394.75 C 647.85 389.75 649.02 384.61 655.75 379.75 C 662.48 374.90 666.06 370.38 675.02 369.02 C 683.99 367.66 688.19 378.14 688.00 386.00 C 687.81 393.87 691.61 403.34 692.93 411.07 C 694.24 418.81 696.66 427.42 699.31 434.69 C 701.95 441.97 704.76 448.48 707.32 455.68 C 709.88 462.88 713.44 469.65 716.31 476.69 C 719.17 483.74 722.92 490.21 725.78 497.22 C 728.63 504.24 732.78 510.56 735.31 517.69 C 737.83 524.83 742.39 531.00 744.78 538.22 C 747.16 545.45 751.25 551.87 753.77 559.23 C 756.29 566.59 758.98 575.18 760.00 583.00
C 760.50 584.94 762.38 587.46 762.00 590.00
C 767.51 586.31 773.16 582.70 778.70 578.70 C 784.23 574.69 788.86 569.95 793.75 564.75 C 798.64 559.55 803.03 555.95 805.92 548.92 C 808.80 541.88 814.22 537.47 814.33 528.33 C 814.43 519.18 822.78 515.54 825.31 525.70 C 827.83 535.85 826.27 542.49 823.07 550.07 C 819.88 557.66 816.67 562.25 812.25 568.25 C 807.82 574.24 803.66 577.49 798.75 582.75 C 793.84 588.01 788.15 591.28 782.75 595.75 C 777.35 600.22 770.93 603.66 765.00 607.00
C 764.33 616.83 766.33 627.99 764.00 637.00
C 764.00 673.45 751.55 706.96 737.00 739.00
C 741.75 748.23 750.72 736.53 756.74 742.26 C 762.76 747.99 761.31 752.40 765.32 760.68 C 769.33 768.95 760.04 771.21 754.77 775.77 C 749.50 780.33 752.68 791.74 760.08 794.92 C 767.49 798.10 759.35 808.03 757.23 813.23 C 755.11 818.43 747.09 826.10 741.78 821.22 C 736.47 816.34 725.39 822.06 726.01 829.01 C 726.63 835.96 723.78 845.94 714.99 844.99 C 706.20 844.04 698.34 851.90 695.08 841.92 C 691.82 831.94 687.46 832.46 678.00 831.00
C 671.50 844.84 662.34 837.48 653.75 832.25 C 645.16 827.01 636.33 839.88 626.92 842.92 C 617.52 845.97 608.32 852.89 597.92 855.92 C 587.53 858.96 576.19 862.00 564.98 864.98 C 553.77 867.96 540.31 869.22 528.00 870.00 C 515.69 870.78 500.18 871.39 487.93 870.07 C 475.67 868.76 463.26 867.84 451.93 865.07 C 440.59 862.30 429.44 859.82 418.93 856.07 C 408.41 852.33 398.63 848.56 388.92 844.08 C 379.22 839.59 370.83 834.49 361.92 829.08 C 353.01 823.68 345.83 817.58 337.75 811.25 C 329.67 804.92 323.17 798.48 315.75 791.25 C 308.33 784.02 302.79 776.23 296.00 769.00
C 288.51 766.91 279.22 773.89 271.00 772.00 C 262.78 770.11 251.69 773.36 243.98 771.02 C 236.26 768.69 227.69 769.21 220.78 766.22 C 213.86 763.24 207.86 761.22 202.30 756.70 C 196.74 752.17 192.50 746.55 191.07 739.93 C 189.65 733.30 191.87 720.88 200.00 721.00
C 200.48 744.22 225.58 753.52 245.00 755.00
C 249.25 755.34 253.78 754.48 258.00 755.00 C 262.22 755.52 267.99 754.02 272.00 755.00 C 276.01 755.98 280.57 751.84 283.00 752.00
C 278.72 746.02 276.51 739.09 272.25 732.75 C 267.98 726.42 266.01 718.43 262.68 711.32 C 259.34 704.21 256.75 697.35 254.68 689.32 C 252.61 681.30 250.39 672.66 249.01 663.99 C 247.62 655.33 246.83 645.08 246.00 636.00 C 245.17 626.92 246.33 615.74 246.98 606.98 C 247.62 598.22 249.05 587.86 250.78 579.78 C 252.51 571.70 255.27 563.61 257.32 556.32 C 259.37 549.03 264.23 540.55 266.32 534.32 C 268.42 528.09 256.21 519.22 250.92 523.92 C 245.64 528.63 233.68 526.33 232.25 518.75 C 230.81 511.17 219.04 504.92 226.25 498.25 C 233.47 491.59 237.43 487.59 234.00 477.00
C 215.06 474.62 222.98 456.19 227.98 444.98 C 232.97 433.76 242.41 447.36 247.74 441.74 C 253.08 436.13 257.87 431.67 254.00 424.00 C 250.13 416.33 260.30 411.97 265.68 410.68 C 271.06 409.38 280.61 401.30 283.75 409.25 C 286.89 417.20 291.66 420.15 300.01 419.99 C 308.36 419.83 306.51 408.07 314.03 408.03 C 321.54 407.98 325.92 415.21 333.00 416.00
C 339.92 403.08 335.49 382.58 345.25 371.25 C 355.01 359.92 374.29 378.67 382.00 385.00
C 385.36 375.25 390.36 364.96 396.25 356.25 C 402.14 347.53 407.49 339.58 414.75 331.75 C 422.01 323.92 428.27 316.57 435.75 308.75 C 443.23 300.93 448.19 293.04 453.78 283.78 C 459.36 274.51 463.89 262.99 465.78 251.78 C 467.67 240.57 463.08 223.32 461.22 213.78 C 459.37 204.23 447.96 187.36 457.25 180.25 C 466.53 173.14 479.93 186.46 488.74 189.26 C 497.56 192.05 507.77 200.77 516.25 205.75 C 524.72 210.74 533.01 217.61 540.70 224.30 C 548.38 231.00 555.71 238.84 562.25 246.75 C 568.79 254.65 575.29 262.15 580.92 271.08 C 586.55 280.01 591.79 289.62 596.31 299.69 C 600.83 309.77 604.75 319.95 607.78 331.22 C 610.81 342.49 612.81 357.68 613.00 370.00
M 373.00 245.00 
C 377.03 246.60 375.04 257.55 377.98 261.02 C 380.91 264.50 380.29 271.32 385.75 274.25 C 391.21 277.18 390.48 281.28 398.23 282.77 C 405.97 284.26 402.52 290.02 396.32 291.32 C 390.13 292.62 388.20 296.97 384.25 300.25 C 380.30 303.53 379.56 310.76 377.22 314.22 C 374.89 317.69 375.95 330.46 370.32 328.66 C 364.69 326.86 368.22 316.61 365.22 312.78 C 362.22 308.95 362.67 302.40 357.75 299.25 C 352.83 296.09 352.33 291.87 345.31 290.70 C 338.28 289.52 338.74 282.57 345.68 281.68 C 352.62 280.79 353.87 276.47 358.25 273.25 C 362.62 270.02 364.12 263.25 365.78 259.78 C 367.44 256.30 367.32 242.74 373.00 245.00
M 672.00 300.00 
C 696.33 306.03 685.24 347.90 660.33 339.67 C 635.42 331.44 646.52 293.69 672.00 300.00
M 731.00 424.00 
C 736.10 416.97 743.18 416.21 751.22 414.22 C 759.26 412.24 771.46 413.15 780.00 413.00 C 788.54 412.85 796.51 416.74 804.03 418.97 C 811.54 421.21 816.44 426.10 822.75 430.25 C 829.06 434.40 831.72 442.48 835.78 447.22 C 839.83 451.97 841.50 470.72 835.75 466.24 C 830.01 461.76 831.01 452.11 824.25 447.75 C 817.48 443.40 815.65 437.05 808.30 433.70 C 800.95 430.35 795.26 427.19 786.93 425.07 C 778.59 422.95 768.19 423.42 759.00 423.00 C 749.81 422.58 740.04 426.98 731.00 424.00
M 719.00 418.00 
C 724.48 420.67 719.34 432.31 712.93 428.07 C 706.51 423.83 712.15 414.66 719.00 418.00
M 832.00 496.00 
C 824.27 502.91 815.30 506.18 810.00 516.00
C 808.75 519.23 806.42 537.94 801.00 535.00 C 795.57 532.05 798.53 518.47 794.07 513.93 C 789.61 509.38 788.59 501.08 780.30 499.70 C 772.01 498.31 768.55 490.44 778.23 488.23 C 787.91 486.02 787.04 480.53 792.92 474.92 C 798.81 469.31 795.47 459.94 799.99 453.99 C 804.52 448.04 808.23 463.66 809.32 468.68 C 810.41 473.69 816.28 481.27 820.75 485.25 C 825.22 489.22 838.89 489.85 832.00 496.00
M 846.00 577.00 
C 852.70 557.91 861.95 539.00 859.00 517.00
C 879.74 530.01 866.31 569.08 846.00 577.00
M 207.00 521.00 
C 205.42 529.97 215.93 532.76 218.00 539.00
C 209.46 539.91 208.99 550.71 204.00 554.00
C 204.56 547.64 200.64 540.20 194.00 539.00
C 194.11 535.13 198.75 534.38 201.25 531.25 C 203.74 528.12 202.61 521.87 207.00 521.00
M 782.00 618.00 
C 783.14 610.41 789.87 607.70 794.75 601.75 C 799.63 595.80 803.91 593.89 809.25 587.25 C 814.58 580.60 817.95 580.08 823.25 571.25 C 828.55 562.42 832.75 567.10 829.22 576.22 C 825.69 585.35 823.14 588.26 817.75 594.75 C 812.36 601.24 808.76 603.98 802.75 608.75 C 796.75 613.53 789.85 617.94 782.00 618.00
M 210.00 610.00 
C 214.73 613.14 204.86 620.48 202.25 623.25 C 199.64 626.01 191.60 632.36 186.78 629.22 C 181.96 626.08 188.17 616.40 192.25 615.25 C 196.32 614.10 205.77 607.18 210.00 610.00
M 180.00 637.00 
C 174.43 652.34 163.53 661.81 158.22 678.22 C 152.91 694.64 157.18 715.63 166.00 730.00
C 126.35 713.18 145.61 649.13 180.00 637.00
M 801.00 688.00 
C 792.06 693.46 786.75 702.78 785.00 713.00
C 777.09 708.53 784.93 697.83 773.75 693.25 C 762.58 688.66 772.69 686.27 777.75 679.75 C 782.81 673.24 783.26 658.93 786.33 670.67 C 789.40 682.42 793.05 681.48 801.00 688.00
M 217.00 667.00 
C 245.10 672.82 234.68 719.18 206.33 711.67 C 177.98 704.16 187.58 660.91 217.00 667.00
M 201.00 777.00 
C 221.63 782.63 244.94 786.67 267.00 786.00 C 289.06 785.33 265.61 796.24 257.98 795.98 C 250.35 795.71 231.07 796.33 222.98 793.02 C 214.88 789.72 203.46 786.97 201.00 777.00
M 687.00 860.00 
C 680.42 871.85 668.08 877.80 655.32 882.32 C 642.57 886.85 621.64 891.83 609.00 885.00
C 634.77 876.64 660.75 866.77 687.00 860.00 Z"/>
</g>
<g fill="None" fill-opacity="0.0" stroke="#E53C77" stroke-opacity="1.00" stroke-width="0.3"><path d="
M 283.00 752.00 
C 283.44 752.62 284.49 753.33 285.00 754.00
C 288.58 758.69 292.13 764.25 296.00 769.00
C 302.79 776.23 308.33 784.02 315.75 791.25 C 323.17 798.48 329.67 804.92 337.75 811.25 C 345.83 817.58 353.01 823.68 361.92 829.08 C 370.83 834.49 379.22 839.59 388.92 844.08 C 398.63 848.56 408.41 852.33 418.93 856.07 C 429.44 859.82 440.59 862.30 451.93 865.07 C 463.26 867.84 475.67 868.76 487.93 870.07 C 500.18 871.39 515.69 870.78 528.00 870.00 C 540.31 869.22 553.77 867.96 564.98 864.98 C 576.19 862.00 587.53 858.96 597.92 855.92 C 608.32 852.89 617.52 845.97 626.92 842.92 C 636.33 839.88 645.16 827.01 653.75 832.25 C 662.34 837.48 671.50 844.84 678.00 831.00
C 687.46 832.46 691.82 831.94 695.08 841.92 C 698.34 851.90 706.20 844.04 714.99 844.99 C 723.78 845.94 726.63 835.96 726.01 829.01 C 725.39 822.06 736.47 816.34 741.78 821.22 C 747.09 826.10 755.11 818.43 757.23 813.23 C 759.35 808.03 767.49 798.10 760.08 794.92 C 752.68 791.74 749.50 780.33 754.77 775.77 C 760.04 771.21 769.33 768.95 765.32 760.68 C 761.31 752.40 762.76 747.99 756.74 742.26 C 750.72 736.53 741.75 748.23 737.00 739.00
C 751.55 706.96 764.00 673.45 764.00 637.00
C 764.00 627.41 763.10 617.56 764.00 608.00 C 764.90 598.44 761.13 591.65 760.00 583.00
C 758.98 575.18 756.29 566.59 753.77 559.23 C 751.25 551.87 747.16 545.45 744.78 538.22 C 742.39 531.00 737.83 524.83 735.31 517.69 C 732.78 510.56 728.63 504.24 725.78 497.22 C 722.92 490.21 719.17 483.74 716.31 476.69 C 713.44 469.65 709.88 462.88 707.32 455.68 C 704.76 448.48 701.95 441.97 699.31 434.69 C 696.66 427.42 694.24 418.81 692.93 411.07 C 691.61 403.34 687.81 393.87 688.00 386.00 C 688.19 378.14 683.99 367.66 675.02 369.02 C 666.06 370.38 662.48 374.90 655.75 379.75 C 649.02 384.61 647.85 389.75 640.75 394.75 C 633.65 399.75 634.59 405.25 624.67 408.67 C 614.75 412.09 613.00 400.35 613.00 392.00
C 613.00 384.67 613.00 377.33 613.00 370.00
C 612.81 357.68 610.81 342.49 607.78 331.22 C 604.75 319.95 600.83 309.77 596.31 299.69 C 591.79 289.62 586.55 280.01 580.92 271.08 C 575.29 262.15 568.79 254.65 562.25 246.75 C 555.71 238.84 548.38 231.00 540.70 224.30 C 533.01 217.61 524.72 210.74 516.25 205.75 C 507.77 200.77 497.56 192.05 488.74 189.26 C 479.93 186.46 466.53 173.14 457.25 180.25 C 447.96 187.36 459.37 204.23 461.22 213.78 C 463.08 223.32 467.67 240.57 465.78 251.78 C 463.89 262.99 459.36 274.51 453.78 283.78 C 448.19 293.04 443.23 300.93 435.75 308.75 C 428.27 316.57 422.01 323.92 414.75 331.75 C 407.49 339.58 402.14 347.53 396.25 356.25 C 390.36 364.96 385.36 375.25 382.00 385.00
C 374.29 378.67 355.01 359.92 345.25 371.25 C 335.49 382.58 339.92 403.08 333.00 416.00
C 325.92 415.21 321.54 407.98 314.03 408.03 C 306.51 408.07 308.36 419.83 300.01 419.99 C 291.66 420.15 286.89 417.20 283.75 409.25 C 280.61 401.30 271.06 409.38 265.68 410.68 C 260.30 411.97 250.13 416.33 254.00 424.00 C 257.87 431.67 253.08 436.13 247.74 441.74 C 242.41 447.36 232.97 433.76 227.98 444.98 C 222.98 456.19 215.06 474.62 234.00 477.00
C 237.43 487.59 233.47 491.59 226.25 498.25 C 219.04 504.92 230.81 511.17 232.25 518.75 C 233.68 526.33 245.64 528.63 250.92 523.92 C 256.21 519.22 268.42 528.09 266.32 534.32 C 264.23 540.55 259.37 549.03 257.32 556.32 C 255.27 563.61 252.51 571.70 250.78 579.78 C 249.05 587.86 247.62 598.22 246.98 606.98 C 246.33 615.74 245.17 626.92 246.00 636.00 C 246.83 645.08 247.62 655.33 249.01 663.99 C 250.39 672.66 252.61 681.30 254.68 689.32 C 256.75 697.35 259.34 704.21 262.68 711.32 C 266.01 718.43 267.98 726.42 272.25 732.75 C 276.51 739.09 278.72 746.02 283.00 752.00
M 589.00 330.00 
C 594.78 348.78 601.14 370.84 596.00 392.00 C 590.87 413.16 613.22 433.50 632.08 424.08 C 650.93 414.65 653.61 400.40 671.00 391.00
C 679.85 474.30 749.11 545.40 747.00 631.00 C 744.89 716.60 697.70 783.16 623.92 824.92 C 550.14 866.68 446.31 861.47 374.75 816.25 C 303.20 771.03 258.57 696.54 263.00 611.00 C 267.43 525.46 346.18 470.98 357.00 388.00
C 365.91 390.58 370.97 399.33 377.30 405.70 C 383.63 412.07 386.20 423.89 393.00 428.00
C 394.44 419.55 394.45 410.04 396.00 402.00
C 397.35 377.18 415.53 357.89 431.25 339.25 C 446.97 320.61 462.59 306.55 473.92 283.92 C 485.26 261.30 485.09 226.39 476.00 202.00
C 528.16 225.77 573.70 274.49 589.00 330.00
M 279.00 413.00 
C 281.36 416.17 283.00 426.46 289.03 425.97 C 295.05 425.49 305.33 429.41 309.25 422.25 C 313.16 415.09 314.95 415.31 322.23 418.77 C 329.51 422.23 329.45 426.05 325.68 432.68 C 321.91 439.30 320.37 442.19 318.00 449.00
C 300.46 435.67 274.62 439.78 262.08 458.08 C 249.54 476.38 257.47 502.45 278.00 511.00
C 276.95 515.98 273.06 520.00 272.00 525.00
C 261.93 518.76 252.66 513.65 241.00 520.00
C 241.12 514.78 227.65 507.50 232.78 501.78 C 237.92 496.06 243.52 491.57 241.01 482.99 C 238.49 474.41 238.06 469.08 228.00 467.00
C 229.59 461.63 229.91 454.84 232.93 449.93 C 235.94 445.01 246.33 451.99 250.25 447.25 C 254.16 442.50 257.41 440.64 260.92 435.92 C 264.43 431.20 256.71 422.14 262.08 419.08 C 267.46 416.03 273.13 414.51 279.00 413.00
M 299.00 448.00 
C 308.47 450.53 316.22 454.42 310.08 463.08 C 303.93 471.73 301.71 475.51 296.25 483.25 C 290.79 490.98 288.31 497.53 283.00 505.00
C 255.10 499.36 257.48 453.91 285.00 449.00
C 289.85 447.12 293.85 446.63 299.00 448.00
M 656.00 825.00 
C 664.30 822.84 668.69 813.53 676.25 810.25 C 683.80 806.97 698.71 815.24 707.02 811.02 C 715.34 806.80 723.47 804.34 727.75 795.75 C 732.04 787.16 734.78 775.45 729.23 766.77 C 723.68 758.10 726.39 750.70 733.00 743.00
C 737.66 750.37 744.17 746.75 751.02 747.02 C 757.87 747.30 757.36 756.52 759.78 762.22 C 762.20 767.92 748.91 769.28 748.25 774.25 C 747.59 779.21 743.41 791.64 750.70 794.30 C 757.98 796.97 756.79 802.24 753.23 808.23 C 749.67 814.22 747.58 819.40 740.26 814.74 C 732.93 810.09 730.01 819.02 723.77 820.77 C 717.53 822.52 722.28 837.68 716.77 838.77 C 711.26 839.85 700.39 845.21 699.03 836.97 C 697.66 828.74 692.35 828.29 685.33 826.67 C 678.31 825.05 674.66 826.43 669.77 831.77 C 664.88 837.11 658.81 827.92 656.00 825.00
M 722.00 764.00 
C 737.84 786.83 708.69 817.85 685.00 804.00
C 698.12 791.27 709.74 776.14 722.00 764.00 Z"/>
</g>
<g fill="None" fill-opacity="0.0" stroke="#FED3DF" stroke-opacity="1.00" stroke-width="0.3"><path d="
M 396.00 402.00 
C 395.87 404.48 395.32 408.33 397.00 410.00
C 409.36 375.58 443.32 369.87 470.75 349.75 C 498.17 329.62 518.70 292.91 513.00 257.00
C 544.58 274.09 567.05 305.86 588.00 334.00
C 589.60 333.47 588.72 331.25 589.00 330.00
C 573.70 274.49 528.16 225.77 476.00 202.00
C 485.09 226.39 485.26 261.30 473.92 283.92 C 462.59 306.55 446.97 320.61 431.25 339.25 C 415.53 357.89 397.35 377.18 396.00 402.00
M 492.00 296.00 
C 497.34 298.45 491.91 308.96 486.33 305.67 C 480.75 302.38 486.39 293.43 492.00 296.00 Z"/>
</g>
<g fill="None" fill-opacity="0.0" stroke="#E4487C" stroke-opacity="1.00" stroke-width="0.3"><path d="
M 373.00 245.00 
C 367.32 242.74 367.44 256.30 365.78 259.78 C 364.12 263.25 362.62 270.02 358.25 273.25 C 353.87 276.47 352.62 280.79 345.68 281.68 C 338.74 282.57 338.28 289.52 345.31 290.70 C 352.33 291.87 352.83 296.09 357.75 299.25 C 362.67 302.40 362.22 308.95 365.22 312.78 C 368.22 316.61 364.69 326.86 370.32 328.66 C 375.95 330.46 374.89 317.69 377.22 314.22 C 379.56 310.76 380.30 303.53 384.25 300.25 C 388.20 296.97 390.13 292.62 396.32 291.32 C 402.52 290.02 405.97 284.26 398.23 282.77 C 390.48 281.28 391.21 277.18 385.75 274.25 C 380.29 271.32 380.91 264.50 377.98 261.02 C 375.04 257.55 377.03 246.60 373.00 245.00
M 372.00 267.00 
C 374.56 274.67 380.84 281.90 388.00 286.00
C 381.41 291.72 374.05 298.16 372.00 307.00
C 366.96 300.22 363.42 291.15 355.00 287.00
C 361.72 281.42 367.82 274.39 372.00 267.00 Z"/>
</g>
<g fill="None" fill-opacity="0.0" stroke="#FCA7C3" stroke-opacity="1.00" stroke-width="0.3"><path d="
M 396.00 402.00 
C 394.45 410.04 394.44 419.55 393.00 428.00
C 386.20 423.89 383.63 412.07 377.30 405.70 C 370.97 399.33 365.91 390.58 357.00 388.00
C 346.18 470.98 267.43 525.46 263.00 611.00 C 258.57 696.54 303.20 771.03 374.75 816.25 C 446.31 861.47 550.14 866.68 623.92 824.92 C 697.70 783.16 744.89 716.60 747.00 631.00 C 749.11 545.40 679.85 474.30 671.00 391.00
C 653.61 400.40 650.93 414.65 632.08 424.08 C 613.22 433.50 590.87 413.16 596.00 392.00 C 601.14 370.84 594.78 348.78 589.00 330.00
C 588.72 331.25 589.60 333.47 588.00 334.00
C 567.05 305.86 544.58 274.09 513.00 257.00
C 518.70 292.91 498.17 329.62 470.75 349.75 C 443.32 369.87 409.36 375.58 397.00 410.00
C 395.32 408.33 395.87 404.48 396.00 402.00
M 570.00 334.00 
C 577.41 336.89 573.07 350.84 564.78 347.22 C 556.49 343.60 560.40 330.26 570.00 334.00
M 694.00 614.00 
C 714.15 611.75 729.88 634.86 718.00 652.00
C 711.97 660.71 702.71 664.99 692.00 663.00
C 695.77 664.22 700.90 664.61 705.00 663.00
C 703.14 736.41 650.27 794.98 580.78 816.78 C 511.28 838.57 419.46 828.87 363.00 779.00
C 362.45 777.18 364.75 776.53 365.00 775.00
C 339.09 797.14 308.73 750.31 338.00 734.00
C 335.17 735.14 332.88 737.27 330.00 738.00
C 307.26 701.13 309.74 649.71 325.31 611.31 C 340.88 572.90 357.73 539.37 372.00 501.00
C 380.94 518.71 400.46 542.55 423.67 532.67 C 446.88 522.79 446.11 494.82 452.78 474.78 C 459.44 454.74 466.94 434.26 482.75 418.75 C 498.56 403.25 517.10 388.50 540.00 389.00
C 534.71 400.95 529.73 411.79 528.22 425.22 C 526.72 438.65 528.44 456.84 531.98 469.02 C 535.51 481.21 541.22 490.92 548.25 500.75 C 555.28 510.58 562.88 518.54 572.75 525.25 C 582.61 531.97 598.05 536.98 610.00 536.00 C 621.95 535.02 633.58 527.03 639.25 517.25 C 644.91 507.47 655.79 490.15 659.78 505.22 C 663.77 520.29 664.17 530.91 668.99 544.01 C 673.81 557.10 677.38 566.81 681.93 579.07 C 686.47 591.34 691.79 601.87 694.00 614.00
M 427.00 445.00 
C 434.10 447.66 429.76 460.98 422.00 458.00 C 414.24 455.02 418.48 441.81 427.00 445.00
M 322.00 513.00 
C 327.03 515.58 321.97 526.10 316.33 522.67 C 310.69 519.24 315.72 509.78 322.00 513.00
M 308.00 537.00 
C 313.06 539.17 308.71 548.67 303.33 545.67 C 297.95 542.67 303.46 535.05 308.00 537.00 Z"/>
</g>
<g fill="None" fill-opacity="0.0" stroke="#FBE7EC" stroke-opacity="1.00" stroke-width="0.3"><path d="
M 372.00 267.00 
C 367.82 274.39 361.72 281.42 355.00 287.00
C 363.42 291.15 366.96 300.22 372.00 307.00
C 374.05 298.16 381.41 291.72 388.00 286.00
C 380.84 281.90 374.56 274.67 372.00 267.00 Z"/>
</g>
<g fill="None" fill-opacity="0.0" stroke="#FDFAFA" stroke-opacity="1.00" stroke-width="0.3"><path d="
M 492.00 296.00 
C 486.39 293.43 480.75 302.38 486.33 305.67 C 491.91 308.96 497.34 298.45 492.00 296.00 Z"/>
</g>
<g fill="None" fill-opacity="0.0" stroke="#FC9DBB" stroke-opacity="1.00" stroke-width="0.3"><path d="
M 672.00 300.00 
C 646.52 293.69 635.42 331.44 660.33 339.67 C 685.24 347.90 696.33 306.03 672.00 300.00
M 670.00 312.00 
C 679.00 315.17 672.25 333.23 662.93 328.07 C 653.60 322.91 659.34 308.25 670.00 312.00 Z"/>
</g>
<g fill="None" fill-opacity="0.0" stroke="#FCF9FA" stroke-opacity="1.00" stroke-width="0.3"><path d="
M 670.00 312.00 
C 659.34 308.25 653.60 322.91 662.93 328.07 C 672.25 333.23 679.00 315.17 670.00 312.00 Z"/>
</g>
<g fill="None" fill-opacity="0.0" stroke="#FEF6F8" stroke-opacity="1.00" stroke-width="0.3"><path d="
M 570.00 334.00 
C 560.40 330.26 556.49 343.60 564.78 347.22 C 573.07 350.84 577.41 336.89 570.00 334.00 Z"/>
</g>
<g fill="None" fill-opacity="0.0" stroke="#EEA6BE" stroke-opacity="1.00" stroke-width="0.3"><path d="
M 613.00 392.00 
C 613.66 385.15 613.67 376.92 613.00 370.00
C 613.00 377.33 613.00 384.67 613.00 392.00 Z"/>
</g>
<g fill="None" fill-opacity="0.0" stroke="#FED4E0" stroke-opacity="1.00" stroke-width="0.3"><path d="
M 338.00 734.00 
C 349.23 729.48 364.19 729.58 371.75 741.25 C 379.32 752.91 374.72 766.70 365.00 775.00
C 364.75 776.53 362.45 777.18 363.00 779.00
C 419.46 828.87 511.28 838.57 580.78 816.78 C 650.27 794.98 703.14 736.41 705.00 663.00
C 700.90 664.61 695.77 664.22 692.00 663.00
C 689.92 662.32 688.56 660.77 687.00 660.00
C 678.48 656.97 674.81 651.73 673.00 643.00
C 670.98 633.22 673.88 623.95 683.00 618.00
C 685.98 616.06 690.35 614.41 694.00 614.00
C 691.79 601.87 686.47 591.34 681.93 579.07 C 677.38 566.81 673.81 557.10 668.99 544.01 C 664.17 530.91 663.77 520.29 659.78 505.22 C 655.79 490.15 644.91 507.47 639.25 517.25 C 633.58 527.03 621.95 535.02 610.00 536.00 C 598.05 536.98 582.61 531.97 572.75 525.25 C 562.88 518.54 555.28 510.58 548.25 500.75 C 541.22 490.92 535.51 481.21 531.98 469.02 C 528.44 456.84 526.72 438.65 528.22 425.22 C 529.73 411.79 534.71 400.95 540.00 389.00
C 517.10 388.50 498.56 403.25 482.75 418.75 C 466.94 434.26 459.44 454.74 452.78 474.78 C 446.11 494.82 446.88 522.79 423.67 532.67 C 400.46 542.55 380.94 518.71 372.00 501.00
C 357.73 539.37 340.88 572.90 325.31 611.31 C 309.74 649.71 307.26 701.13 330.00 738.00
C 332.88 737.27 335.17 735.14 338.00 734.00
M 421.00 597.00 
C 429.45 598.63 434.88 603.53 441.25 610.75 C 447.62 617.97 448.43 626.29 449.00 637.00 C 449.57 647.71 432.41 648.73 432.02 637.98 C 431.64 627.22 429.95 620.51 420.77 615.23 C 411.59 609.95 401.48 615.61 397.03 623.03 C 392.57 630.44 397.44 644.66 385.99 645.99 C 374.54 647.32 375.60 629.61 377.99 621.99 C 380.38 614.38 385.42 607.38 392.70 602.70 C 399.98 598.01 411.69 595.20 421.00 597.00
M 610.00 597.00 
C 619.29 598.33 623.57 602.95 630.75 610.25 C 637.94 617.55 637.42 625.16 639.00 636.00 C 640.58 646.84 622.92 649.50 622.03 638.97 C 621.13 628.45 621.38 620.12 611.75 615.25 C 602.12 610.37 592.43 615.65 586.25 622.25 C 580.07 628.85 587.83 644.58 575.97 645.97 C 564.12 647.37 564.38 630.82 566.99 622.99 C 569.61 615.17 574.36 609.10 581.25 603.25 C 588.13 597.39 600.66 595.67 610.00 597.00
M 398.00 664.00 
C 407.76 665.18 427.74 673.61 420.68 686.68 C 413.62 699.75 395.07 696.86 384.00 698.00 C 372.93 699.14 354.44 686.69 361.31 675.31 C 368.18 663.92 386.35 662.59 398.00 664.00
M 637.00 664.00 
C 647.34 665.25 666.63 673.94 658.74 686.74 C 650.85 699.55 632.60 697.28 621.00 698.00 C 609.40 698.72 591.30 686.20 598.77 674.77 C 606.24 663.34 624.85 662.53 637.00 664.00
M 490.00 697.00 
C 502.35 703.66 517.38 703.30 529.00 695.00
C 536.43 687.57 535.28 684.02 541.25 675.25 C 547.22 666.48 559.33 677.97 555.22 686.22 C 551.11 694.48 550.04 699.99 542.75 705.75 C 535.46 711.51 530.17 715.31 521.32 717.32 C 512.48 719.33 501.71 719.59 493.00 717.00 C 484.29 714.41 479.26 710.95 472.25 704.75 C 465.24 698.55 464.06 694.06 460.22 684.78 C 456.39 675.50 472.77 667.97 476.30 677.70 C 479.84 687.42 480.99 692.14 490.00 697.00
M 685.00 686.00 
C 692.96 688.40 688.01 702.57 680.00 699.00 C 671.99 695.43 677.80 683.83 685.00 686.00 Z"/>
</g>
<g fill="None" fill-opacity="0.0" stroke="#FCA7C3" stroke-opacity="1.00" stroke-width="0.3"><path d="
M 279.00 413.00 
C 273.13 414.51 267.46 416.03 262.08 419.08 C 256.71 422.14 264.43 431.20 260.92 435.92 C 257.41 440.64 254.16 442.50 250.25 447.25 C 246.33 451.99 235.94 445.01 232.93 449.93 C 229.91 454.84 229.59 461.63 228.00 467.00
C 238.06 469.08 238.49 474.41 241.01 482.99 C 243.52 491.57 237.92 496.06 232.78 501.78 C 227.65 507.50 241.12 514.78 241.00 520.00
C 252.66 513.65 261.93 518.76 272.00 525.00
C 273.06 520.00 276.95 515.98 278.00 511.00
C 257.47 502.45 249.54 476.38 262.08 458.08 C 274.62 439.78 300.46 435.67 318.00 449.00
C 320.37 442.19 321.91 439.30 325.68 432.68 C 329.45 426.05 329.51 422.23 322.23 418.77 C 314.95 415.31 313.16 415.09 309.25 422.25 C 305.33 429.41 295.05 425.49 289.03 425.97 C 283.00 426.46 281.36 416.17 279.00 413.00 Z"/>
</g>
<g fill="None" fill-opacity="0.0" stroke="#FDBDD0" stroke-opacity="1.00" stroke-width="0.3"><path d="
M 731.00 424.00 
C 740.04 426.98 749.81 422.58 759.00 423.00 C 768.19 423.42 778.59 422.95 786.93 425.07 C 795.26 427.19 800.95 430.35 808.30 433.70 C 815.65 437.05 817.48 443.40 824.25 447.75 C 831.01 452.11 830.01 461.76 835.75 466.24 C 841.50 470.72 839.83 451.97 835.78 447.22 C 831.72 442.48 829.06 434.40 822.75 430.25 C 816.44 426.10 811.54 421.21 804.03 418.97 C 796.51 416.74 788.54 412.85 780.00 413.00 C 771.46 413.15 759.26 412.24 751.22 414.22 C 743.18 416.21 736.10 416.97 731.00 424.00 Z"/>
</g>
<g fill="None" fill-opacity="0.0" stroke="#FEB3CA" stroke-opacity="1.00" stroke-width="0.3"><path d="
M 719.00 418.00 
C 712.15 414.66 706.51 423.83 712.93 428.07 C 719.34 432.31 724.48 420.67 719.00 418.00 Z"/>
</g>
<g fill="None" fill-opacity="0.0" stroke="#FDFAFA" stroke-opacity="1.00" stroke-width="0.3"><path d="
M 427.00 445.00 
C 418.48 441.81 414.24 455.02 422.00 458.00 C 429.76 460.98 434.10 447.66 427.00 445.00 Z"/>
</g>
<g fill="None" fill-opacity="0.0" stroke="#F89DBE" stroke-opacity="1.00" stroke-width="0.3"><path d="
M 285.00 449.00 
C 289.22 448.00 294.46 447.37 299.00 448.00
C 293.85 446.63 289.85 447.12 285.00 449.00 Z"/>
</g>
<g fill="None" fill-opacity="0.0" stroke="#FCF9FA" stroke-opacity="1.00" stroke-width="0.3"><path d="
M 285.00 449.00 
C 257.48 453.91 255.10 499.36 283.00 505.00
C 288.31 497.53 290.79 490.98 296.25 483.25 C 301.71 475.51 303.93 471.73 310.08 463.08 C 316.22 454.42 308.47 450.53 299.00 448.00
C 294.46 447.37 289.22 448.00 285.00 449.00 Z"/>
</g>
<g fill="None" fill-opacity="0.0" stroke="#E3477B" stroke-opacity="1.00" stroke-width="0.3"><path d="
M 810.00 516.00 
C 814.39 504.68 822.99 501.95 832.00 496.00
C 838.89 489.85 825.22 489.22 820.75 485.25 C 816.28 481.27 810.41 473.69 809.32 468.68 C 808.23 463.66 804.52 448.04 799.99 453.99 C 795.47 459.94 798.81 469.31 792.92 474.92 C 787.04 480.53 787.91 486.02 778.23 488.23 C 768.55 490.44 772.01 498.31 780.30 499.70 C 788.59 501.08 789.61 509.38 794.07 513.93 C 798.53 518.47 795.57 532.05 801.00 535.00 C 806.42 537.94 808.75 519.23 810.00 516.00
M 820.00 494.00 
C 811.56 498.12 807.22 507.32 802.00 514.00
C 799.94 506.41 794.34 499.86 788.00 495.00
C 792.62 487.81 800.23 481.92 802.00 473.00
C 806.66 479.50 811.57 489.74 820.00 494.00 Z"/>
</g>
<g fill="None" fill-opacity="0.0" stroke="#F7E8EB" stroke-opacity="1.00" stroke-width="0.3"><path d="
M 820.00 494.00 
C 811.57 489.74 806.66 479.50 802.00 473.00
C 800.23 481.92 792.62 487.81 788.00 495.00
C 794.34 499.86 799.94 506.41 802.00 514.00
C 807.22 507.32 811.56 498.12 820.00 494.00 Z"/>
</g>
<g fill="None" fill-opacity="0.0" stroke="#EEA9C2" stroke-opacity="1.00" stroke-width="0.3"><path d="
M 810.00 516.00 
C 815.30 506.18 824.27 502.91 832.00 496.00
C 822.99 501.95 814.39 504.68 810.00 516.00 Z"/>
</g>
<g fill="None" fill-opacity="0.0" stroke="#FDF8FA" stroke-opacity="1.00" stroke-width="0.3"><path d="
M 322.00 513.00 
C 315.72 509.78 310.69 519.24 316.33 522.67 C 321.97 526.10 327.03 515.58 322.00 513.00 Z"/>
</g>
<g fill="None" fill-opacity="0.0" stroke="#FDBED0" stroke-opacity="1.00" stroke-width="0.3"><path d="
M 846.00 577.00 
C 866.31 569.08 879.74 530.01 859.00 517.00
C 861.95 539.00 852.70 557.91 846.00 577.00 Z"/>
</g>
<g fill="None" fill-opacity="0.0" stroke="#FA88B0" stroke-opacity="1.00" stroke-width="0.3"><path d="
M 760.00 583.00 
C 761.13 591.65 764.90 598.44 764.00 608.00 C 763.10 617.56 764.00 627.41 764.00 637.00
C 766.33 627.99 764.33 616.83 765.00 607.00
C 770.93 603.66 777.35 600.22 782.75 595.75 C 788.15 591.28 793.84 588.01 798.75 582.75 C 803.66 577.49 807.82 574.24 812.25 568.25 C 816.67 562.25 819.88 557.66 823.07 550.07 C 826.27 542.49 827.83 535.85 825.31 525.70 C 822.78 515.54 814.43 519.18 814.33 528.33 C 814.22 537.47 808.80 541.88 805.92 548.92 C 803.03 555.95 798.64 559.55 793.75 564.75 C 788.86 569.95 784.23 574.69 778.70 578.70 C 773.16 582.70 767.51 586.31 762.00 590.00
C 762.38 587.46 760.50 584.94 760.00 583.00 Z"/>
</g>
<g fill="None" fill-opacity="0.0" stroke="#FDADC7" stroke-opacity="1.00" stroke-width="0.3"><path d="
M 207.00 521.00 
C 202.61 521.87 203.74 528.12 201.25 531.25 C 198.75 534.38 194.11 535.13 194.00 539.00
C 200.64 540.20 204.56 547.64 204.00 554.00
C 208.99 550.71 209.46 539.91 218.00 539.00
C 215.93 532.76 205.42 529.97 207.00 521.00 Z"/>
</g>
<g fill="None" fill-opacity="0.0" stroke="#FBEFF3" stroke-opacity="1.00" stroke-width="0.3"><path d="
M 308.00 537.00 
C 303.46 535.05 297.95 542.67 303.33 545.67 C 308.71 548.67 313.06 539.17 308.00 537.00 Z"/>
</g>
<g fill="None" fill-opacity="0.0" stroke="#FDC1D2" stroke-opacity="1.00" stroke-width="0.3"><path d="
M 782.00 618.00 
C 789.85 617.94 796.75 613.53 802.75 608.75 C 808.76 603.98 812.36 601.24 817.75 594.75 C 823.14 588.26 825.69 585.35 829.22 576.22 C 832.75 567.10 828.55 562.42 823.25 571.25 C 817.95 580.08 814.58 580.60 809.25 587.25 C 803.91 593.89 799.63 595.80 794.75 601.75 C 789.87 607.70 783.14 610.41 782.00 618.00 Z"/>
</g>
<g fill="None" fill-opacity="0.0" stroke="#E33B74" stroke-opacity="1.00" stroke-width="0.3"><path d="
M 421.00 597.00 
C 411.69 595.20 399.98 598.01 392.70 602.70 C 385.42 607.38 380.38 614.38 377.99 621.99 C 375.60 629.61 374.54 647.32 385.99 645.99 C 397.44 644.66 392.57 630.44 397.03 623.03 C 401.48 615.61 411.59 609.95 420.77 615.23 C 429.95 620.51 431.64 627.22 432.02 637.98 C 432.41 648.73 449.57 647.71 449.00 637.00 C 448.43 626.29 447.62 617.97 441.25 610.75 C 434.88 603.53 429.45 598.63 421.00 597.00 Z"/>
</g>
<g fill="None" fill-opacity="0.0" stroke="#E43B74" stroke-opacity="1.00" stroke-width="0.3"><path d="
M 610.00 597.00 
C 600.66 595.67 588.13 597.39 581.25 603.25 C 574.36 609.10 569.61 615.17 566.99 622.99 C 564.38 630.82 564.12 647.37 575.97 645.97 C 587.83 644.58 580.07 628.85 586.25 622.25 C 592.43 615.65 602.12 610.37 611.75 615.25 C 621.38 620.12 621.13 628.45 622.03 638.97 C 622.92 649.50 640.58 646.84 639.00 636.00 C 637.42 625.16 637.94 617.55 630.75 610.25 C 623.57 602.95 619.29 598.33 610.00 597.00 Z"/>
</g>
<g fill="None" fill-opacity="0.0" stroke="#FCC2D4" stroke-opacity="1.00" stroke-width="0.3"><path d="
M 210.00 610.00 
C 205.77 607.18 196.32 614.10 192.25 615.25 C 188.17 616.40 181.96 626.08 186.78 629.22 C 191.60 632.36 199.64 626.01 202.25 623.25 C 204.86 620.48 214.73 613.14 210.00 610.00 Z"/>
</g>
<g fill="None" fill-opacity="0.0" stroke="#E53A75" stroke-opacity="1.00" stroke-width="0.3"><path d="
M 683.00 618.00 
C 675.31 623.89 672.14 633.58 673.00 643.00
C 674.81 651.73 678.48 656.97 687.00 660.00
C 698.22 663.99 710.19 661.60 718.00 652.00
C 729.88 634.86 714.15 611.75 694.00 614.00
C 690.35 614.41 685.98 616.06 683.00 618.00
M 701.00 626.00 
C 716.91 629.94 708.87 656.67 693.00 651.00 C 677.13 645.33 684.98 622.03 701.00 626.00 Z"/>
</g>
<g fill="None" fill-opacity="0.0" stroke="#F48EB3" stroke-opacity="1.00" stroke-width="0.3"><path d="
M 673.00 643.00 
C 672.14 633.58 675.31 623.89 683.00 618.00
C 673.88 623.95 670.98 633.22 673.00 643.00 Z"/>
</g>
<g fill="None" fill-opacity="0.0" stroke="#FBCDDB" stroke-opacity="1.00" stroke-width="0.3"><path d="
M 701.00 626.00 
C 684.98 622.03 677.13 645.33 693.00 651.00 C 708.87 656.67 716.91 629.94 701.00 626.00 Z"/>
</g>
<g fill="None" fill-opacity="0.0" stroke="#FCC1D2" stroke-opacity="1.00" stroke-width="0.3"><path d="
M 180.00 637.00 
C 145.61 649.13 126.35 713.18 166.00 730.00
C 157.18 715.63 152.91 694.64 158.22 678.22 C 163.53 661.81 174.43 652.34 180.00 637.00 Z"/>
</g>
<g fill="None" fill-opacity="0.0" stroke="#EF6A9A" stroke-opacity="1.00" stroke-width="0.3"><path d="
M 687.00 660.00 
C 688.56 660.77 689.92 662.32 692.00 663.00
C 702.71 664.99 711.97 660.71 718.00 652.00
C 710.19 661.60 698.22 663.99 687.00 660.00 Z"/>
</g>
<g fill="None" fill-opacity="0.0" stroke="#FEB5CB" stroke-opacity="1.00" stroke-width="0.3"><path d="
M 398.00 664.00 
C 386.35 662.59 368.18 663.92 361.31 675.31 C 354.44 686.69 372.93 699.14 384.00 698.00 C 395.07 696.86 413.62 699.75 420.68 686.68 C 427.74 673.61 407.76 665.18 398.00 664.00 Z"/>
</g>
<g fill="None" fill-opacity="0.0" stroke="#FEB6CB" stroke-opacity="1.00" stroke-width="0.3"><path d="
M 637.00 664.00 
C 624.85 662.53 606.24 663.34 598.77 674.77 C 591.30 686.20 609.40 698.72 621.00 698.00 C 632.60 697.28 650.85 699.55 658.74 686.74 C 666.63 673.94 647.34 665.25 637.00 664.00 Z"/>
</g>
<g fill="None" fill-opacity="0.0" stroke="#FCADC6" stroke-opacity="1.00" stroke-width="0.3"><path d="
M 801.00 688.00 
C 793.05 681.48 789.40 682.42 786.33 670.67 C 783.26 658.93 782.81 673.24 777.75 679.75 C 772.69 686.27 762.58 688.66 773.75 693.25 C 784.93 697.83 777.09 708.53 785.00 713.00
C 786.75 702.78 792.06 693.46 801.00 688.00 Z"/>
</g>
<g fill="None" fill-opacity="0.0" stroke="#F987AF" stroke-opacity="1.00" stroke-width="0.3"><path d="
M 217.00 667.00 
C 187.58 660.91 177.98 704.16 206.33 711.67 C 234.68 719.18 245.10 672.82 217.00 667.00
M 216.00 679.00 
C 228.85 682.90 219.37 705.91 206.78 699.22 C 194.19 692.53 202.58 674.93 216.00 679.00 Z"/>
</g>
<g fill="None" fill-opacity="0.0" stroke="#E43973" stroke-opacity="1.00" stroke-width="0.3"><path d="
M 529.00 695.00 
C 518.27 705.73 501.69 704.86 490.00 697.00
C 480.99 692.14 479.84 687.42 476.30 677.70 C 472.77 667.97 456.39 675.50 460.22 684.78 C 464.06 694.06 465.24 698.55 472.25 704.75 C 479.26 710.95 484.29 714.41 493.00 717.00 C 501.71 719.59 512.48 719.33 521.32 717.32 C 530.17 715.31 535.46 711.51 542.75 705.75 C 550.04 699.99 551.11 694.48 555.22 686.22 C 559.33 677.97 547.22 666.48 541.25 675.25 C 535.28 684.02 536.43 687.57 529.00 695.00 Z"/>
</g>
<g fill="None" fill-opacity="0.0" stroke="#FCF8F9" stroke-opacity="1.00" stroke-width="0.3"><path d="
M 216.00 679.00 
C 202.58 674.93 194.19 692.53 206.78 699.22 C 219.37 705.91 228.85 682.90 216.00 679.00 Z"/>
</g>
<g fill="None" fill-opacity="0.0" stroke="#FEFCFC" stroke-opacity="1.00" stroke-width="0.3"><path d="
M 685.00 686.00 
C 677.80 683.83 671.99 695.43 680.00 699.00 C 688.01 702.57 692.96 688.40 685.00 686.00 Z"/>
</g>
<g fill="None" fill-opacity="0.0" stroke="#F78CB2" stroke-opacity="1.00" stroke-width="0.3"><path d="
M 490.00 697.00 
C 501.69 704.86 518.27 705.73 529.00 695.00
C 517.38 703.30 502.35 703.66 490.00 697.00 Z"/>
</g>
<g fill="None" fill-opacity="0.0" stroke="#F985AD" stroke-opacity="1.00" stroke-width="0.3"><path d="
M 296.00 769.00 
C 292.13 764.25 288.58 758.69 285.00 754.00
C 284.63 756.05 275.90 755.42 273.00 756.00 C 270.10 756.58 262.82 755.47 259.00 756.00 C 255.18 756.53 248.32 755.64 245.00 755.00
C 225.58 753.52 200.48 744.22 200.00 721.00
C 191.87 720.88 189.65 733.30 191.07 739.93 C 192.50 746.55 196.74 752.17 202.30 756.70 C 207.86 761.22 213.86 763.24 220.78 766.22 C 227.69 769.21 236.26 768.69 243.98 771.02 C 251.69 773.36 262.78 770.11 271.00 772.00 C 279.22 773.89 288.51 766.91 296.00 769.00 Z"/>
</g>
<g fill="None" fill-opacity="0.0" stroke="#E43B76" stroke-opacity="1.00" stroke-width="0.3"><path d="
M 338.00 734.00 
C 308.73 750.31 339.09 797.14 365.00 775.00
C 374.72 766.70 379.32 752.91 371.75 741.25 C 364.19 729.58 349.23 729.48 338.00 734.00
M 354.00 742.00 
C 370.23 745.71 362.84 773.25 346.33 767.67 C 329.82 762.09 338.47 738.45 354.00 742.00 Z"/>
</g>
<g fill="None" fill-opacity="0.0" stroke="#FCCCDA" stroke-opacity="1.00" stroke-width="0.3"><path d="
M 354.00 742.00 
C 338.47 738.45 329.82 762.09 346.33 767.67 C 362.84 773.25 370.23 745.71 354.00 742.00 Z"/>
</g>
<g fill="None" fill-opacity="0.0" stroke="#FBA1BF" stroke-opacity="1.00" stroke-width="0.3"><path d="
M 656.00 825.00 
C 658.81 827.92 664.88 837.11 669.77 831.77 C 674.66 826.43 678.31 825.05 685.33 826.67 C 692.35 828.29 697.66 828.74 699.03 836.97 C 700.39 845.21 711.26 839.85 716.77 838.77 C 722.28 837.68 717.53 822.52 723.77 820.77 C 730.01 819.02 732.93 810.09 740.26 814.74 C 747.58 819.40 749.67 814.22 753.23 808.23 C 756.79 802.24 757.98 796.97 750.70 794.30 C 743.41 791.64 747.59 779.21 748.25 774.25 C 748.91 769.28 762.20 767.92 759.78 762.22 C 757.36 756.52 757.87 747.30 751.02 747.02 C 744.17 746.75 737.66 750.37 733.00 743.00
C 726.39 750.70 723.68 758.10 729.23 766.77 C 734.78 775.45 732.04 787.16 727.75 795.75 C 723.47 804.34 715.34 806.80 707.02 811.02 C 698.71 815.24 683.80 806.97 676.25 810.25 C 668.69 813.53 664.30 822.84 656.00 825.00 Z"/>
</g>
<g fill="None" fill-opacity="0.0" stroke="#F9DCE5" stroke-opacity="1.00" stroke-width="0.3"><path d="
M 245.00 755.00 
C 248.32 755.64 255.18 756.53 259.00 756.00 C 262.82 755.47 270.10 756.58 273.00 756.00 C 275.90 755.42 284.63 756.05 285.00 754.00
C 284.49 753.33 283.44 752.62 283.00 752.00
C 280.57 751.84 276.01 755.98 272.00 755.00 C 267.99 754.02 262.22 755.52 258.00 755.00 C 253.78 754.48 249.25 755.34 245.00 755.00 Z"/>
</g>
<g fill="None" fill-opacity="0.0" stroke="#FDF8F9" stroke-opacity="1.00" stroke-width="0.3"><path d="
M 722.00 764.00 
C 709.74 776.14 698.12 791.27 685.00 804.00
C 708.69 817.85 737.84 786.83 722.00 764.00 Z"/>
</g>
<g fill="None" fill-opacity="0.0" stroke="#FCC0D2" stroke-opacity="1.00" stroke-width="0.3"><path d="
M 201.00 777.00 
C 203.46 786.97 214.88 789.72 222.98 793.02 C 231.07 796.33 250.35 795.71 257.98 795.98 C 265.61 796.24 289.06 785.33 267.00 786.00 C 244.94 786.67 221.63 782.63 201.00 777.00 Z"/>
</g>
<g fill="None" fill-opacity="0.0" stroke="#FCC1D3" stroke-opacity="1.00" stroke-width="0.3"><path d="
M 687.00 860.00 
C 660.75 866.77 634.77 876.64 609.00 885.00
C 621.64 891.83 642.57 886.85 655.32 882.32 C 668.08 877.80 680.42 871.85 687.00 860.00 Z"/>
</g>
<g fill="#E53C77" fill-opacity="1.00" stroke="None">
<path d="
M 283.00 752.00 
C 283.44 752.62 284.49 753.33 285.00 754.00
C 288.58 758.69 292.13 764.25 296.00 769.00
C 302.79 776.23 308.33 784.02 315.75 791.25 C 323.17 798.48 329.67 804.92 337.75 811.25 C 345.83 817.58 353.01 823.68 361.92 829.08 C 370.83 834.49 379.22 839.59 388.92 844.08 C 398.63 848.56 408.41 852.33 418.93 856.07 C 429.44 859.82 440.59 862.30 451.93 865.07 C 463.26 867.84 475.67 868.76 487.93 870.07 C 500.18 871.39 515.69 870.78 528.00 870.00 C 540.31 869.22 553.77 867.96 564.98 864.98 C 576.19 862.00 587.53 858.96 597.92 855.92 C 608.32 852.89 617.52 845.97 626.92 842.92 C 636.33 839.88 645.16 827.01 653.75 832.25 C 662.34 837.48 671.50 844.84 678.00 831.00
C 687.46 832.46 691.82 831.94 695.08 841.92 C 698.34 851.90 706.20 844.04 714.99 844.99 C 723.78 845.94 726.63 835.96 726.01 829.01 C 725.39 822.06 736.47 816.34 741.78 821.22 C 747.09 826.10 755.11 818.43 757.23 813.23 C 759.35 808.03 767.49 798.10 760.08 794.92 C 752.68 791.74 749.50 780.33 754.77 775.77 C 760.04 771.21 769.33 768.95 765.32 760.68 C 761.31 752.40 762.76 747.99 756.74 742.26 C 750.72 736.53 741.75 748.23 737.00 739.00
C 751.55 706.96 764.00 673.45 764.00 637.00
C 764.00 627.41 763.10 617.56 764.00 608.00 C 764.90 598.44 761.13 591.65 760.00 583.00
C 758.98 575.18 756.29 566.59 753.77 559.23 C 751.25 551.87 747.16 545.45 744.78 538.22 C 742.39 531.00 737.83 524.83 735.31 517.69 C 732.78 510.56 728.63 504.24 725.78 497.22 C 722.92 490.21 719.17 483.74 716.31 476.69 C 713.44 469.65 709.88 462.88 707.32 455.68 C 704.76 448.48 701.95 441.97 699.31 434.69 C 696.66 427.42 694.24 418.81 692.93 411.07 C 691.61 403.34 687.81 393.87 688.00 386.00 C 688.19 378.14 683.99 367.66 675.02 369.02 C 666.06 370.38 662.48 374.90 655.75 379.75 C 649.02 384.61 647.85 389.75 640.75 394.75 C 633.65 399.75 634.59 405.25 624.67 408.67 C 614.75 412.09 613.00 400.35 613.00 392.00
C 613.00 384.67 613.00 377.33 613.00 370.00
C 612.81 357.68 610.81 342.49 607.78 331.22 C 604.75 319.95 600.83 309.77 596.31 299.69 C 591.79 289.62 586.55 280.01 580.92 271.08 C 575.29 262.15 568.79 254.65 562.25 246.75 C 555.71 238.84 548.38 231.00 540.70 224.30 C 533.01 217.61 524.72 210.74 516.25 205.75 C 507.77 200.77 497.56 192.05 488.74 189.26 C 479.93 186.46 466.53 173.14 457.25 180.25 C 447.96 187.36 459.37 204.23 461.22 213.78 C 463.08 223.32 467.67 240.57 465.78 251.78 C 463.89 262.99 459.36 274.51 453.78 283.78 C 448.19 293.04 443.23 300.93 435.75 308.75 C 428.27 316.57 422.01 323.92 414.75 331.75 C 407.49 339.58 402.14 347.53 396.25 356.25 C 390.36 364.96 385.36 375.25 382.00 385.00
C 374.29 378.67 355.01 359.92 345.25 371.25 C 335.49 382.58 339.92 403.08 333.00 416.00
C 325.92 415.21 321.54 407.98 314.03 408.03 C 306.51 408.07 308.36 419.83 300.01 419.99 C 291.66 420.15 286.89 417.20 283.75 409.25 C 280.61 401.30 271.06 409.38 265.68 410.68 C 260.30 411.97 250.13 416.33 254.00 424.00 C 257.87 431.67 253.08 436.13 247.74 441.74 C 242.41 447.36 232.97 433.76 227.98 444.98 C 222.98 456.19 215.06 474.62 234.00 477.00
C 237.43 487.59 233.47 491.59 226.25 498.25 C 219.04 504.92 230.81 511.17 232.25 518.75 C 233.68 526.33 245.64 528.63 250.92 523.92 C 256.21 519.22 268.42 528.09 266.32 534.32 C 264.23 540.55 259.37 549.03 257.32 556.32 C 255.27 563.61 252.51 571.70 250.78 579.78 C 249.05 587.86 247.62 598.22 246.98 606.98 C 246.33 615.74 245.17 626.92 246.00 636.00 C 246.83 645.08 247.62 655.33 249.01 663.99 C 250.39 672.66 252.61 681.30 254.68 689.32 C 256.75 697.35 259.34 704.21 262.68 711.32 C 266.01 718.43 267.98 726.42 272.25 732.75 C 276.51 739.09 278.72 746.02 283.00 752.00
M 589.00 330.00 
C 594.78 348.78 601.14 370.84 596.00 392.00 C 590.87 413.16 613.22 433.50 632.08 424.08 C 650.93 414.65 653.61 400.40 671.00 391.00
C 679.85 474.30 749.11 545.40 747.00 631.00 C 744.89 716.60 697.70 783.16 623.92 824.92 C 550.14 866.68 446.31 861.47 374.75 816.25 C 303.20 771.03 258.57 696.54 263.00 611.00 C 267.43 525.46 346.18 470.98 357.00 388.00
C 365.91 390.58 370.97 399.33 377.30 405.70 C 383.63 412.07 386.20 423.89 393.00 428.00
C 394.44 419.55 394.45 410.04 396.00 402.00
C 397.35 377.18 415.53 357.89 431.25 339.25 C 446.97 320.61 462.59 306.55 473.92 283.92 C 485.26 261.30 485.09 226.39 476.00 202.00
C 528.16 225.77 573.70 274.49 589.00 330.00
M 279.00 413.00 
C 281.36 416.17 283.00 426.46 289.03 425.97 C 295.05 425.49 305.33 429.41 309.25 422.25 C 313.16 415.09 314.95 415.31 322.23 418.77 C 329.51 422.23 329.45 426.05 325.68 432.68 C 321.91 439.30 320.37 442.19 318.00 449.00
C 300.46 435.67 274.62 439.78 262.08 458.08 C 249.54 476.38 257.47 502.45 278.00 511.00
C 276.95 515.98 273.06 520.00 272.00 525.00
C 261.93 518.76 252.66 513.65 241.00 520.00
C 241.12 514.78 227.65 507.50 232.78 501.78 C 237.92 496.06 243.52 491.57 241.01 482.99 C 238.49 474.41 238.06 469.08 228.00 467.00
C 229.59 461.63 229.91 454.84 232.93 449.93 C 235.94 445.01 246.33 451.99 250.25 447.25 C 254.16 442.50 257.41 440.64 260.92 435.92 C 264.43 431.20 256.71 422.14 262.08 419.08 C 267.46 416.03 273.13 414.51 279.00 413.00
M 299.00 448.00 
C 308.47 450.53 316.22 454.42 310.08 463.08 C 303.93 471.73 301.71 475.51 296.25 483.25 C 290.79 490.98 288.31 497.53 283.00 505.00
C 255.10 499.36 257.48 453.91 285.00 449.00
C 289.85 447.12 293.85 446.63 299.00 448.00
M 656.00 825.00 
C 664.30 822.84 668.69 813.53 676.25 810.25 C 683.80 806.97 698.71 815.24 707.02 811.02 C 715.34 806.80 723.47 804.34 727.75 795.75 C 732.04 787.16 734.78 775.45 729.23 766.77 C 723.68 758.10 726.39 750.70 733.00 743.00
C 737.66 750.37 744.17 746.75 751.02 747.02 C 757.87 747.30 757.36 756.52 759.78 762.22 C 762.20 767.92 748.91 769.28 748.25 774.25 C 747.59 779.21 743.41 791.64 750.70 794.30 C 757.98 796.97 756.79 802.24 753.23 808.23 C 749.67 814.22 747.58 819.40 740.26 814.74 C 732.93 810.09 730.01 819.02 723.77 820.77 C 717.53 822.52 722.28 837.68 716.77 838.77 C 711.26 839.85 700.39 845.21 699.03 836.97 C 697.66 828.74 692.35 828.29 685.33 826.67 C 678.31 825.05 674.66 826.43 669.77 831.77 C 664.88 837.11 658.81 827.92 656.00 825.00
M 722.00 764.00 
C 737.84 786.83 708.69 817.85 685.00 804.00
C 698.12 791.27 709.74 776.14 722.00 764.00 Z"/>
</g>
<g fill="#FED3DF" fill-opacity="1.00" stroke="None">
<path d="
M 396.00 402.00 
C 395.87 404.48 395.32 408.33 397.00 410.00
C 409.36 375.58 443.32 369.87 470.75 349.75 C 498.17 329.62 518.70 292.91 513.00 257.00
C 544.58 274.09 567.05 305.86 588.00 334.00
C 589.60 333.47 588.72 331.25 589.00 330.00
C 573.70 274.49 528.16 225.77 476.00 202.00
C 485.09 226.39 485.26 261.30 473.92 283.92 C 462.59 306.55 446.97 320.61 431.25 339.25 C 415.53 357.89 397.35 377.18 396.00 402.00
M 492.00 296.00 
C 497.34 298.45 491.91 308.96 486.33 305.67 C 480.75 302.38 486.39 293.43 492.00 296.00 Z"/>
</g>
<g fill="#E4487C" fill-opacity="1.00" stroke="None">
<path d="
M 373.00 245.00 
C 367.32 242.74 367.44 256.30 365.78 259.78 C 364.12 263.25 362.62 270.02 358.25 273.25 C 353.87 276.47 352.62 280.79 345.68 281.68 C 338.74 282.57 338.28 289.52 345.31 290.70 C 352.33 291.87 352.83 296.09 357.75 299.25 C 362.67 302.40 362.22 308.95 365.22 312.78 C 368.22 316.61 364.69 326.86 370.32 328.66 C 375.95 330.46 374.89 317.69 377.22 314.22 C 379.56 310.76 380.30 303.53 384.25 300.25 C 388.20 296.97 390.13 292.62 396.32 291.32 C 402.52 290.02 405.97 284.26 398.23 282.77 C 390.48 281.28 391.21 277.18 385.75 274.25 C 380.29 271.32 380.91 264.50 377.98 261.02 C 375.04 257.55 377.03 246.60 373.00 245.00
M 372.00 267.00 
C 374.56 274.67 380.84 281.90 388.00 286.00
C 381.41 291.72 374.05 298.16 372.00 307.00
C 366.96 300.22 363.42 291.15 355.00 287.00
C 361.72 281.42 367.82 274.39 372.00 267.00 Z"/>
</g>
<g fill="#FCA7C3" fill-opacity="1.00" stroke="None">
<path d="
M 396.00 402.00 
C 394.45 410.04 394.44 419.55 393.00 428.00
C 386.20 423.89 383.63 412.07 377.30 405.70 C 370.97 399.33 365.91 390.58 357.00 388.00
C 346.18 470.98 267.43 525.46 263.00 611.00 C 258.57 696.54 303.20 771.03 374.75 816.25 C 446.31 861.47 550.14 866.68 623.92 824.92 C 697.70 783.16 744.89 716.60 747.00 631.00 C 749.11 545.40 679.85 474.30 671.00 391.00
C 653.61 400.40 650.93 414.65 632.08 424.08 C 613.22 433.50 590.87 413.16 596.00 392.00 C 601.14 370.84 594.78 348.78 589.00 330.00
C 588.72 331.25 589.60 333.47 588.00 334.00
C 567.05 305.86 544.58 274.09 513.00 257.00
C 518.70 292.91 498.17 329.62 470.75 349.75 C 443.32 369.87 409.36 375.58 397.00 410.00
C 395.32 408.33 395.87 404.48 396.00 402.00
M 570.00 334.00 
C 577.41 336.89 573.07 350.84 564.78 347.22 C 556.49 343.60 560.40 330.26 570.00 334.00
M 694.00 614.00 
C 714.15 611.75 729.88 634.86 718.00 652.00
C 711.97 660.71 702.71 664.99 692.00 663.00
C 695.77 664.22 700.90 664.61 705.00 663.00
C 703.14 736.41 650.27 794.98 580.78 816.78 C 511.28 838.57 419.46 828.87 363.00 779.00
C 362.45 777.18 364.75 776.53 365.00 775.00
C 339.09 797.14 308.73 750.31 338.00 734.00
C 335.17 735.14 332.88 737.27 330.00 738.00
C 307.26 701.13 309.74 649.71 325.31 611.31 C 340.88 572.90 357.73 539.37 372.00 501.00
C 380.94 518.71 400.46 542.55 423.67 532.67 C 446.88 522.79 446.11 494.82 452.78 474.78 C 459.44 454.74 466.94 434.26 482.75 418.75 C 498.56 403.25 517.10 388.50 540.00 389.00
C 534.71 400.95 529.73 411.79 528.22 425.22 C 526.72 438.65 528.44 456.84 531.98 469.02 C 535.51 481.21 541.22 490.92 548.25 500.75 C 555.28 510.58 562.88 518.54 572.75 525.25 C 582.61 531.97 598.05 536.98 610.00 536.00 C 621.95 535.02 633.58 527.03 639.25 517.25 C 644.91 507.47 655.79 490.15 659.78 505.22 C 663.77 520.29 664.17 530.91 668.99 544.01 C 673.81 557.10 677.38 566.81 681.93 579.07 C 686.47 591.34 691.79 601.87 694.00 614.00
M 427.00 445.00 
C 434.10 447.66 429.76 460.98 422.00 458.00 C 414.24 455.02 418.48 441.81 427.00 445.00
M 322.00 513.00 
C 327.03 515.58 321.97 526.10 316.33 522.67 C 310.69 519.24 315.72 509.78 322.00 513.00
M 308.00 537.00 
C 313.06 539.17 308.71 548.67 303.33 545.67 C 297.95 542.67 303.46 535.05 308.00 537.00 Z"/>
</g>
<g fill="#FBE7EC" fill-opacity="1.00" stroke="None">
<path d="
M 372.00 267.00 
C 367.82 274.39 361.72 281.42 355.00 287.00
C 363.42 291.15 366.96 300.22 372.00 307.00
C 374.05 298.16 381.41 291.72 388.00 286.00
C 380.84 281.90 374.56 274.67 372.00 267.00 Z"/>
</g>
<g fill="#FDFAFA" fill-opacity="1.00" stroke="None">
<path d="
M 492.00 296.00 
C 486.39 293.43 480.75 302.38 486.33 305.67 C 491.91 308.96 497.34 298.45 492.00 296.00 Z"/>
</g>
<g fill="#FC9DBB" fill-opacity="1.00" stroke="None">
<path d="
M 672.00 300.00 
C 646.52 293.69 635.42 331.44 660.33 339.67 C 685.24 347.90 696.33 306.03 672.00 300.00
M 670.00 312.00 
C 679.00 315.17 672.25 333.23 662.93 328.07 C 653.60 322.91 659.34 308.25 670.00 312.00 Z"/>
</g>
<g fill="#EEA6BE" fill-opacity="1.00" stroke="None">
<path d="
M 613.00 392.00 
C 613.66 385.15 613.67 376.92 613.00 370.00
C 613.00 377.33 613.00 384.67 613.00 392.00 Z"/>
</g>
<g fill="#FED4E0" fill-opacity="1.00" stroke="None">
<path d="
M 338.00 734.00 
C 349.23 729.48 364.19 729.58 371.75 741.25 C 379.32 752.91 374.72 766.70 365.00 775.00
C 364.75 776.53 362.45 777.18 363.00 779.00
C 419.46 828.87 511.28 838.57 580.78 816.78 C 650.27 794.98 703.14 736.41 705.00 663.00
C 700.90 664.61 695.77 664.22 692.00 663.00
C 689.92 662.32 688.56 660.77 687.00 660.00
C 678.48 656.97 674.81 651.73 673.00 643.00
C 670.98 633.22 673.88 623.95 683.00 618.00
C 685.98 616.06 690.35 614.41 694.00 614.00
C 691.79 601.87 686.47 591.34 681.93 579.07 C 677.38 566.81 673.81 557.10 668.99 544.01 C 664.17 530.91 663.77 520.29 659.78 505.22 C 655.79 490.15 644.91 507.47 639.25 517.25 C 633.58 527.03 621.95 535.02 610.00 536.00 C 598.05 536.98 582.61 531.97 572.75 525.25 C 562.88 518.54 555.28 510.58 548.25 500.75 C 541.22 490.92 535.51 481.21 531.98 469.02 C 528.44 456.84 526.72 438.65 528.22 425.22 C 529.73 411.79 534.71 400.95 540.00 389.00
C 517.10 388.50 498.56 403.25 482.75 418.75 C 466.94 434.26 459.44 454.74 452.78 474.78 C 446.11 494.82 446.88 522.79 423.67 532.67 C 400.46 542.55 380.94 518.71 372.00 501.00
C 357.73 539.37 340.88 572.90 325.31 611.31 C 309.74 649.71 307.26 701.13 330.00 738.00
C 332.88 737.27 335.17 735.14 338.00 734.00
M 421.00 597.00 
C 429.45 598.63 434.88 603.53 441.25 610.75 C 447.62 617.97 448.43 626.29 449.00 637.00 C 449.57 647.71 432.41 648.73 432.02 637.98 C 431.64 627.22 429.95 620.51 420.77 615.23 C 411.59 609.95 401.48 615.61 397.03 623.03 C 392.57 630.44 397.44 644.66 385.99 645.99 C 374.54 647.32 375.60 629.61 377.99 621.99 C 380.38 614.38 385.42 607.38 392.70 602.70 C 399.98 598.01 411.69 595.20 421.00 597.00
M 610.00 597.00 
C 619.29 598.33 623.57 602.95 630.75 610.25 C 637.94 617.55 637.42 625.16 639.00 636.00 C 640.58 646.84 622.92 649.50 622.03 638.97 C 621.13 628.45 621.38 620.12 611.75 615.25 C 602.12 610.37 592.43 615.65 586.25 622.25 C 580.07 628.85 587.83 644.58 575.97 645.97 C 564.12 647.37 564.38 630.82 566.99 622.99 C 569.61 615.17 574.36 609.10 581.25 603.25 C 588.13 597.39 600.66 595.67 610.00 597.00
M 398.00 664.00 
C 407.76 665.18 427.74 673.61 420.68 686.68 C 413.62 699.75 395.07 696.86 384.00 698.00 C 372.93 699.14 354.44 686.69 361.31 675.31 C 368.18 663.92 386.35 662.59 398.00 664.00
M 637.00 664.00 
C 647.34 665.25 666.63 673.94 658.74 686.74 C 650.85 699.55 632.60 697.28 621.00 698.00 C 609.40 698.72 591.30 686.20 598.77 674.77 C 606.24 663.34 624.85 662.53 637.00 664.00
M 490.00 697.00 
C 502.35 703.66 517.38 703.30 529.00 695.00
C 536.43 687.57 535.28 684.02 541.25 675.25 C 547.22 666.48 559.33 677.97 555.22 686.22 C 551.11 694.48 550.04 699.99 542.75 705.75 C 535.46 711.51 530.17 715.31 521.32 717.32 C 512.48 719.33 501.71 719.59 493.00 717.00 C 484.29 714.41 479.26 710.95 472.25 704.75 C 465.24 698.55 464.06 694.06 460.22 684.78 C 456.39 675.50 472.77 667.97 476.30 677.70 C 479.84 687.42 480.99 692.14 490.00 697.00
M 685.00 686.00 
C 692.96 688.40 688.01 702.57 680.00 699.00 C 671.99 695.43 677.80 683.83 685.00 686.00 Z"/>
</g>
<g fill="#FCA7C3" fill-opacity="1.00" stroke="None">
<path d="
M 279.00 413.00 
C 273.13 414.51 267.46 416.03 262.08 419.08 C 256.71 422.14 264.43 431.20 260.92 435.92 C 257.41 440.64 254.16 442.50 250.25 447.25 C 246.33 451.99 235.94 445.01 232.93 449.93 C 229.91 454.84 229.59 461.63 228.00 467.00
C 238.06 469.08 238.49 474.41 241.01 482.99 C 243.52 491.57 237.92 496.06 232.78 501.78 C 227.65 507.50 241.12 514.78 241.00 520.00
C 252.66 513.65 261.93 518.76 272.00 525.00
C 273.06 520.00 276.95 515.98 278.00 511.00
C 257.47 502.45 249.54 476.38 262.08 458.08 C 274.62 439.78 300.46 435.67 318.00 449.00
C 320.37 442.19 321.91 439.30 325.68 432.68 C 329.45 426.05 329.51 422.23 322.23 418.77 C 314.95 415.31 313.16 415.09 309.25 422.25 C 305.33 429.41 295.05 425.49 289.03 425.97 C 283.00 426.46 281.36 416.17 279.00 413.00 Z"/>
</g>
<g fill="#FDBDD0" fill-opacity="1.00" stroke="None">
<path d="
M 731.00 424.00 
C 740.04 426.98 749.81 422.58 759.00 423.00 C 768.19 423.42 778.59 422.95 786.93 425.07 C 795.26 427.19 800.95 430.35 808.30 433.70 C 815.65 437.05 817.48 443.40 824.25 447.75 C 831.01 452.11 830.01 461.76 835.75 466.24 C 841.50 470.72 839.83 451.97 835.78 447.22 C 831.72 442.48 829.06 434.40 822.75 430.25 C 816.44 426.10 811.54 421.21 804.03 418.97 C 796.51 416.74 788.54 412.85 780.00 413.00 C 771.46 413.15 759.26 412.24 751.22 414.22 C 743.18 416.21 736.10 416.97 731.00 424.00 Z"/>
</g>
<g fill="#FEB3CA" fill-opacity="1.00" stroke="None">
<path d="
M 719.00 418.00 
C 712.15 414.66 706.51 423.83 712.93 428.07 C 719.34 432.31 724.48 420.67 719.00 418.00 Z"/>
</g>
<g fill="#FDFAFA" fill-opacity="1.00" stroke="None">
<path d="
M 427.00 445.00 
C 418.48 441.81 414.24 455.02 422.00 458.00 C 429.76 460.98 434.10 447.66 427.00 445.00 Z"/>
</g>
<g fill="#F89DBE" fill-opacity="1.00" stroke="None">
<path d="
M 285.00 449.00 
C 289.22 448.00 294.46 447.37 299.00 448.00
C 293.85 446.63 289.85 447.12 285.00 449.00 Z"/>
</g>
<g fill="#E3477B" fill-opacity="1.00" stroke="None">
<path d="
M 810.00 516.00 
C 814.39 504.68 822.99 501.95 832.00 496.00
C 838.89 489.85 825.22 489.22 820.75 485.25 C 816.28 481.27 810.41 473.69 809.32 468.68 C 808.23 463.66 804.52 448.04 799.99 453.99 C 795.47 459.94 798.81 469.31 792.92 474.92 C 787.04 480.53 787.91 486.02 778.23 488.23 C 768.55 490.44 772.01 498.31 780.30 499.70 C 788.59 501.08 789.61 509.38 794.07 513.93 C 798.53 518.47 795.57 532.05 801.00 535.00 C 806.42 537.94 808.75 519.23 810.00 516.00
M 820.00 494.00 
C 811.56 498.12 807.22 507.32 802.00 514.00
C 799.94 506.41 794.34 499.86 788.00 495.00
C 792.62 487.81 800.23 481.92 802.00 473.00
C 806.66 479.50 811.57 489.74 820.00 494.00 Z"/>
</g>
<g fill="#F7E8EB" fill-opacity="1.00" stroke="None">
<path d="
M 820.00 494.00 
C 811.57 489.74 806.66 479.50 802.00 473.00
C 800.23 481.92 792.62 487.81 788.00 495.00
C 794.34 499.86 799.94 506.41 802.00 514.00
C 807.22 507.32 811.56 498.12 820.00 494.00 Z"/>
</g>
<g fill="#EEA9C2" fill-opacity="1.00" stroke="None">
<path d="
M 810.00 516.00 
C 815.30 506.18 824.27 502.91 832.00 496.00
C 822.99 501.95 814.39 504.68 810.00 516.00 Z"/>
</g>
<g fill="#FDF8FA" fill-opacity="1.00" stroke="None">
<path d="
M 322.00 513.00 
C 315.72 509.78 310.69 519.24 316.33 522.67 C 321.97 526.10 327.03 515.58 322.00 513.00 Z"/>
</g>
<g fill="#FDBED0" fill-opacity="1.00" stroke="None">
<path d="
M 846.00 577.00 
C 866.31 569.08 879.74 530.01 859.00 517.00
C 861.95 539.00 852.70 557.91 846.00 577.00 Z"/>
</g>
<g fill="#FA88B0" fill-opacity="1.00" stroke="None">
<path d="
M 760.00 583.00 
C 761.13 591.65 764.90 598.44 764.00 608.00 C 763.10 617.56 764.00 627.41 764.00 637.00
C 766.33 627.99 764.33 616.83 765.00 607.00
C 770.93 603.66 777.35 600.22 782.75 595.75 C 788.15 591.28 793.84 588.01 798.75 582.75 C 803.66 577.49 807.82 574.24 812.25 568.25 C 816.67 562.25 819.88 557.66 823.07 550.07 C 826.27 542.49 827.83 535.85 825.31 525.70 C 822.78 515.54 814.43 519.18 814.33 528.33 C 814.22 537.47 808.80 541.88 805.92 548.92 C 803.03 555.95 798.64 559.55 793.75 564.75 C 788.86 569.95 784.23 574.69 778.70 578.70 C 773.16 582.70 767.51 586.31 762.00 590.00
C 762.38 587.46 760.50 584.94 760.00 583.00 Z"/>
</g>
<g fill="#FDADC7" fill-opacity="1.00" stroke="None">
<path d="
M 207.00 521.00 
C 202.61 521.87 203.74 528.12 201.25 531.25 C 198.75 534.38 194.11 535.13 194.00 539.00
C 200.64 540.20 204.56 547.64 204.00 554.00
C 208.99 550.71 209.46 539.91 218.00 539.00
C 215.93 532.76 205.42 529.97 207.00 521.00 Z"/>
</g>
<g fill="#FBEFF3" fill-opacity="1.00" stroke="None">
<path d="
M 308.00 537.00 
C 303.46 535.05 297.95 542.67 303.33 545.67 C 308.71 548.67 313.06 539.17 308.00 537.00 Z"/>
</g>
<g fill="#FDC1D2" fill-opacity="1.00" stroke="None">
<path d="
M 782.00 618.00 
C 789.85 617.94 796.75 613.53 802.75 608.75 C 808.76 603.98 812.36 601.24 817.75 594.75 C 823.14 588.26 825.69 585.35 829.22 576.22 C 832.75 567.10 828.55 562.42 823.25 571.25 C 817.95 580.08 814.58 580.60 809.25 587.25 C 803.91 593.89 799.63 595.80 794.75 601.75 C 789.87 607.70 783.14 610.41 782.00 618.00 Z"/>
</g>
<g fill="#E33B74" fill-opacity="1.00" stroke="None">
<path d="
M 421.00 597.00 
C 411.69 595.20 399.98 598.01 392.70 602.70 C 385.42 607.38 380.38 614.38 377.99 621.99 C 375.60 629.61 374.54 647.32 385.99 645.99 C 397.44 644.66 392.57 630.44 397.03 623.03 C 401.48 615.61 411.59 609.95 420.77 615.23 C 429.95 620.51 431.64 627.22 432.02 637.98 C 432.41 648.73 449.57 647.71 449.00 637.00 C 448.43 626.29 447.62 617.97 441.25 610.75 C 434.88 603.53 429.45 598.63 421.00 597.00 Z"/>
</g>
<g fill="#E43B74" fill-opacity="1.00" stroke="None">
<path d="
M 610.00 597.00 
C 600.66 595.67 588.13 597.39 581.25 603.25 C 574.36 609.10 569.61 615.17 566.99 622.99 C 564.38 630.82 564.12 647.37 575.97 645.97 C 587.83 644.58 580.07 628.85 586.25 622.25 C 592.43 615.65 602.12 610.37 611.75 615.25 C 621.38 620.12 621.13 628.45 622.03 638.97 C 622.92 649.50 640.58 646.84 639.00 636.00 C 637.42 625.16 637.94 617.55 630.75 610.25 C 623.57 602.95 619.29 598.33 610.00 597.00 Z"/>
</g>
<g fill="#FCC2D4" fill-opacity="1.00" stroke="None">
<path d="
M 210.00 610.00 
C 205.77 607.18 196.32 614.10 192.25 615.25 C 188.17 616.40 181.96 626.08 186.78 629.22 C 191.60 632.36 199.64 626.01 202.25 623.25 C 204.86 620.48 214.73 613.14 210.00 610.00 Z"/>
</g>
<g fill="#E53A75" fill-opacity="1.00" stroke="None">
<path d="
M 683.00 618.00 
C 675.31 623.89 672.14 633.58 673.00 643.00
C 674.81 651.73 678.48 656.97 687.00 660.00
C 698.22 663.99 710.19 661.60 718.00 652.00
C 729.88 634.86 714.15 611.75 694.00 614.00
C 690.35 614.41 685.98 616.06 683.00 618.00
M 701.00 626.00 
C 716.91 629.94 708.87 656.67 693.00 651.00 C 677.13 645.33 684.98 622.03 701.00 626.00 Z"/>
</g>
<g fill="#F48EB3" fill-opacity="1.00" stroke="None">
<path d="
M 673.00 643.00 
C 672.14 633.58 675.31 623.89 683.00 618.00
C 673.88 623.95 670.98 633.22 673.00 643.00 Z"/>
</g>
<g fill="#FBCDDB" fill-opacity="1.00" stroke="None">
<path d="
M 701.00 626.00 
C 684.98 622.03 677.13 645.33 693.00 651.00 C 708.87 656.67 716.91 629.94 701.00 626.00 Z"/>
</g>
<g fill="#FCC1D2" fill-opacity="1.00" stroke="None">
<path d="
M 180.00 637.00 
C 145.61 649.13 126.35 713.18 166.00 730.00
C 157.18 715.63 152.91 694.64 158.22 678.22 C 163.53 661.81 174.43 652.34 180.00 637.00 Z"/>
</g>
<g fill="#EF6A9A" fill-opacity="1.00" stroke="None">
<path d="
M 687.00 660.00 
C 688.56 660.77 689.92 662.32 692.00 663.00
C 702.71 664.99 711.97 660.71 718.00 652.00
C 710.19 661.60 698.22 663.99 687.00 660.00 Z"/>
</g>
<g fill="#FEB5CB" fill-opacity="1.00" stroke="None">
<path d="
M 398.00 664.00 
C 386.35 662.59 368.18 663.92 361.31 675.31 C 354.44 686.69 372.93 699.14 384.00 698.00 C 395.07 696.86 413.62 699.75 420.68 686.68 C 427.74 673.61 407.76 665.18 398.00 664.00 Z"/>
</g>
<g fill="#FEB6CB" fill-opacity="1.00" stroke="None">
<path d="
M 637.00 664.00 
C 624.85 662.53 606.24 663.34 598.77 674.77 C 591.30 686.20 609.40 698.72 621.00 698.00 C 632.60 697.28 650.85 699.55 658.74 686.74 C 666.63 673.94 647.34 665.25 637.00 664.00 Z"/>
</g>
<g fill="#FCADC6" fill-opacity="1.00" stroke="None">
<path d="
M 801.00 688.00 
C 793.05 681.48 789.40 682.42 786.33 670.67 C 783.26 658.93 782.81 673.24 777.75 679.75 C 772.69 686.27 762.58 688.66 773.75 693.25 C 784.93 697.83 777.09 708.53 785.00 713.00
C 786.75 702.78 792.06 693.46 801.00 688.00 Z"/>
</g>
<g fill="#F987AF" fill-opacity="1.00" stroke="None">
<path d="
M 217.00 667.00 
C 187.58 660.91 177.98 704.16 206.33 711.67 C 234.68 719.18 245.10 672.82 217.00 667.00
M 216.00 679.00 
C 228.85 682.90 219.37 705.91 206.78 699.22 C 194.19 692.53 202.58 674.93 216.00 679.00 Z"/>
</g>
<g fill="#E43973" fill-opacity="1.00" stroke="None">
<path d="
M 529.00 695.00 
C 518.27 705.73 501.69 704.86 490.00 697.00
C 480.99 692.14 479.84 687.42 476.30 677.70 C 472.77 667.97 456.39 675.50 460.22 684.78 C 464.06 694.06 465.24 698.55 472.25 704.75 C 479.26 710.95 484.29 714.41 493.00 717.00 C 501.71 719.59 512.48 719.33 521.32 717.32 C 530.17 715.31 535.46 711.51 542.75 705.75 C 550.04 699.99 551.11 694.48 555.22 686.22 C 559.33 677.97 547.22 666.48 541.25 675.25 C 535.28 684.02 536.43 687.57 529.00 695.00 Z"/>
</g>
<g fill="#F78CB2" fill-opacity="1.00" stroke="None">
<path d="
M 490.00 697.00 
C 501.69 704.86 518.27 705.73 529.00 695.00
C 517.38 703.30 502.35 703.66 490.00 697.00 Z"/>
</g>
<g fill="#F985AD" fill-opacity="1.00" stroke="None">
<path d="
M 296.00 769.00 
C 292.13 764.25 288.58 758.69 285.00 754.00
C 284.63 756.05 275.90 755.42 273.00 756.00 C 270.10 756.58 262.82 755.47 259.00 756.00 C 255.18 756.53 248.32 755.64 245.00 755.00
C 225.58 753.52 200.48 744.22 200.00 721.00
C 191.87 720.88 189.65 733.30 191.07 739.93 C 192.50 746.55 196.74 752.17 202.30 756.70 C 207.86 761.22 213.86 763.24 220.78 766.22 C 227.69 769.21 236.26 768.69 243.98 771.02 C 251.69 773.36 262.78 770.11 271.00 772.00 C 279.22 773.89 288.51 766.91 296.00 769.00 Z"/>
</g>
<g fill="#E43B76" fill-opacity="1.00" stroke="None">
<path d="
M 338.00 734.00 
C 308.73 750.31 339.09 797.14 365.00 775.00
C 374.72 766.70 379.32 752.91 371.75 741.25 C 364.19 729.58 349.23 729.48 338.00 734.00
M 354.00 742.00 
C 370.23 745.71 362.84 773.25 346.33 767.67 C 329.82 762.09 338.47 738.45 354.00 742.00 Z"/>
</g>
<g fill="#FCCCDA" fill-opacity="1.00" stroke="None">
<path d="
M 354.00 742.00 
C 338.47 738.45 329.82 762.09 346.33 767.67 C 362.84 773.25 370.23 745.71 354.00 742.00 Z"/>
</g>
<g fill="#FBA1BF" fill-opacity="1.00" stroke="None">
<path d="
M 656.00 825.00 
C 658.81 827.92 664.88 837.11 669.77 831.77 C 674.66 826.43 678.31 825.05 685.33 826.67 C 692.35 828.29 697.66 828.74 699.03 836.97 C 700.39 845.21 711.26 839.85 716.77 838.77 C 722.28 837.68 717.53 822.52 723.77 820.77 C 730.01 819.02 732.93 810.09 740.26 814.74 C 747.58 819.40 749.67 814.22 753.23 808.23 C 756.79 802.24 757.98 796.97 750.70 794.30 C 743.41 791.64 747.59 779.21 748.25 774.25 C 748.91 769.28 762.20 767.92 759.78 762.22 C 757.36 756.52 757.87 747.30 751.02 747.02 C 744.17 746.75 737.66 750.37 733.00 743.00
C 726.39 750.70 723.68 758.10 729.23 766.77 C 734.78 775.45 732.04 787.16 727.75 795.75 C 723.47 804.34 715.34 806.80 707.02 811.02 C 698.71 815.24 683.80 806.97 676.25 810.25 C 668.69 813.53 664.30 822.84 656.00 825.00 Z"/>
</g>
<g fill="#F9DCE5" fill-opacity="1.00" stroke="None">
<path d="
M 245.00 755.00 
C 248.32 755.64 255.18 756.53 259.00 756.00 C 262.82 755.47 270.10 756.58 273.00 756.00 C 275.90 755.42 284.63 756.05 285.00 754.00
C 284.49 753.33 283.44 752.62 283.00 752.00
C 280.57 751.84 276.01 755.98 272.00 755.00 C 267.99 754.02 262.22 755.52 258.00 755.00 C 253.78 754.48 249.25 755.34 245.00 755.00 Z"/>
</g>
<g fill="#FDF8F9" fill-opacity="1.00" stroke="None">
<path d="
M 722.00 764.00 
C 709.74 776.14 698.12 791.27 685.00 804.00
C 708.69 817.85 737.84 786.83 722.00 764.00 Z"/>
</g>
<g fill="#FCC0D2" fill-opacity="1.00" stroke="None">
<path d="
M 201.00 777.00 
C 203.46 786.97 214.88 789.72 222.98 793.02 C 231.07 796.33 250.35 795.71 257.98 795.98 C 265.61 796.24 289.06 785.33 267.00 786.00 C 244.94 786.67 221.63 782.63 201.00 777.00 Z"/>
</g>
<g fill="#FCC1D3" fill-opacity="1.00" stroke="None">
<path d="
M 687.00 860.00 
C 660.75 866.77 634.77 876.64 609.00 885.00
C 621.64 891.83 642.57 886.85 655.32 882.32 C 668.08 877.80 680.42 871.85 687.00 860.00 Z"/>
</g>
</svg>